<?xml version="1.0" encoding="UTF-8" standalone="no"?>
<svg
    xmlns:dc="http://purl.org/dc/elements/1.1/"
    xmlns:cc="http://creativecommons.org/ns#"
    xmlns:rdf="http://www.w3.org/1999/02/22-rdf-syntax-ns#"
    xmlns:svg="http://www.w3.org/2000/svg"
    xmlns="http://www.w3.org/2000/svg"
    xmlns:inkscape="http://www.inkscape.org/namespaces/inkscape" version="1.1" width="691.20001" height="363.60001" id="svg2"
    xml:space="preserve"
>
    <defs id="defs6">
        <clipPath id="clipPath18">
            <path d="m 2764.8,0 c 1526.93,0 2764.81,651.164 2764.81,1454.39 0,803.23 -1237.88,1454.4 -2764.81,1454.4 C 1237.87,2908.79 0,2257.62 0,1454.39 0,651.164 1237.87,0 2764.8,0" id="path20"/>
        </clipPath>
    </defs>
    <g transform="matrix(1.25,0,0,-1.25,0,363.6)" id="g10">
        <g transform="scale(0.1,0.1)" id="g12">  
            <path
            xmlns="http://www.w3.org/2000/svg" d="m 2764.8,0 c 1526.93,0 2764.81,651.164 2764.81,1454.39 0,803.23 -1237.88,1454.4 -2764.81,1454.4 C 1237.87,2908.79 0,2257.62 0,1454.39 0,651.164 1237.87,0 2764.8,0" id="path22" style="fill:#2256AF;fill-opacity:1;fill-rule:nonzero;stroke:none"/>
            <path d="m 2764.8,107.988 c 1467.29,0 2656.8,602.813 2656.8,1346.402 0,743.59 -1189.51,1346.41 -2656.8,1346.41 C 1297.51,2800.8 108,2197.98 108,1454.39 108,710.801 1297.51,107.988 2764.8,107.988" id="path900" style="fill:#2D72B9;fill-opacity:1;fill-rule:nonzero;stroke:none"/>
            <path d="m 3302.98,1019.22 c 0,0 131.8,678.24 131.8,678.25 29.73,153.09 5,267.29 -73.51,339.43 -76.02,69.82 -205.1,103.76 -394.61,103.76 l -228.22,0 65.33,336.06 c 2.46,12.67 -0.88,25.77 -9.08,35.73 -8.21,9.95 -20.44,15.71 -33.34,15.71 l -315,0 c -20.68,0 -38.46,-14.65 -42.4,-34.95 L 2264,1773.15 c -12.74,81.02 -44.08,150.68 -94.27,208.13 -92.39,105.76 -238.55,159.38 -434.41,159.38 l -610.55,0 c -20.68,0 -38.46,-14.65 -42.4,-34.95 L 799.086,648.203 c -2.461,-12.664 0.867,-25.762 9.074,-35.711 8.203,-9.953 20.43,-15.722 33.336,-15.722 l 317.504,0 c 20.67,0 38.45,14.656 42.4,34.949 l 68.52,352.551 236.33,0 c 124.05,0 228.21,13.437 309.57,39.93 83.19,27.04 159.73,72.91 227.21,136.07 54.51,50.1 99.57,106.18 134.24,166.68 l -56.61,-291.25 c -2.46,-12.66 0.87,-25.76 9.08,-35.708 8.21,-9.953 20.43,-15.722 33.33,-15.722 l 315,0 c 20.68,0 38.47,14.656 42.41,34.95 l 155.47,800.05 216.14,0 c 92.11,0 119.07,-18.35 126.39,-26.23 6.67,-7.2 20.52,-32.55 5,-112.45 L 2898.16,1035.7 c -2.46,-12.66 0.87,-25.76 9.08,-35.708 8.21,-9.953 20.43,-15.722 33.33,-15.722 l 320,0 c 20.68,0 38.46,14.656 42.41,34.95 z m -1460.38,560.4 c -19.78,-101.66 -57.07,-174.19 -110.82,-215.58 -54.62,-42.05 -141.98,-63.38 -259.67,-63.38 l -140.71,0 101.76,523.61 181.92,0 c 133.67,0 187.51,-28.57 209.13,-52.53 29.97,-33.23 36.33,-99.67 18.39,-192.12" id="path902" style="fill:#ffffff;fill-opacity:1;fill-rule:nonzero;stroke:none"/>
            <path d="m 4650.04,1981.28 c -92.39,105.76 -238.55,159.38 -434.4,159.38 l -610.55,0 c -20.69,0 -38.47,-14.65 -42.41,-34.95 L 3279.4,648.203 c -2.46,-12.664 0.87,-25.762 9.07,-35.711 8.21,-9.953 20.43,-15.722 33.34,-15.722 l 317.5,0 c 20.67,0 38.46,14.656 42.39,34.949 l 68.53,352.551 236.34,0 c 124.04,0 228.2,13.437 309.57,39.93 83.18,27.04 159.72,72.91 227.2,136.07 56.28,51.73 102.61,109.8 137.7,172.57 35.03,62.71 60.21,132.7 74.85,208.02 36.11,185.7 7.22,333.88 -85.85,440.42 z m -329.28,-401.66 c -19.79,-101.66 -57.07,-174.19 -110.82,-215.58 -54.62,-42.05 -141.99,-63.38 -259.66,-63.38 l -140.73,0 101.76,523.61 181.93,0 c 133.66,0 187.51,-28.57 209.13,-52.53 29.97,-33.23 36.33,-99.67 18.39,-192.12" id="path904" style="fill:#ffffff;fill-opacity:1;fill-rule:nonzero;stroke:none"/>
            <path d="m 1615.08,1867.46 c 120.63,0 201.02,-22.26 241.21,-66.79 40.16,-44.53 49.73,-120.98 28.71,-229.29 -21.95,-112.82 -64.21,-193.33 -126.87,-241.58 -62.66,-48.24 -158.01,-72.34 -286.02,-72.34 l -193.12,0 118.55,610 217.54,0 z M 841.488,639.961 l 317.502,0 75.31,387.499 271.95,0 c 120,0 218.71,12.58 296.21,37.83 77.5,25.18 147.93,67.46 211.33,126.79 53.21,48.9 96.25,102.84 129.22,161.84 32.93,58.93 56.33,124.01 70.16,195.19 33.59,172.77 8.24,307.34 -75.98,403.75 -84.22,96.4 -218.2,144.6 -401.87,144.6 l -610.55,0 L 841.488,639.961" id="path906" style="fill:#08090d;fill-opacity:1;fill-rule:nonzero;stroke:none"/>
            <path d="m 2446.35,2484.96 315,0 -75.31,-387.5 280.62,0 c 176.57,0 298.36,-30.82 365.39,-92.38 67.04,-61.6 87.11,-161.4 60.32,-299.37 l -131.8,-678.25 -320,0 125.31,644.89 c 14.26,73.36 9.03,123.4 -15.74,150.08 -24.76,26.68 -77.46,40.03 -158.05,40.03 l -251.75,0 -162.27,-835 -315,0 283.28,1457.5" id="path908" style="fill:#08090d;fill-opacity:1;fill-rule:nonzero;stroke:none"/>
            <path d="m 4093.24,1867.46 c 120.62,0 201.01,-22.26 241.21,-66.79 40.16,-44.53 49.73,-120.98 28.71,-229.29 -21.95,-112.82 -64.21,-193.33 -126.87,-241.58 -62.66,-48.24 -158.01,-72.34 -286.01,-72.34 l -193.13,0 118.55,610 217.54,0 z m -773.59,-1227.499 317.5,0 75.31,387.499 271.95,0 c 120,0 218.71,12.58 296.21,37.83 77.5,25.18 147.93,67.46 211.33,126.79 53.2,48.9 96.25,102.84 129.22,161.84 32.93,58.93 56.33,124.01 70.15,195.19 33.6,172.77 8.25,307.34 -75.97,403.75 -84.22,96.4 -218.19,144.6 -401.88,144.6 l -610.54,0 -283.28,-1457.499" id="path910" style="fill:#08090d;fill-opacity:1;fill-rule:nonzero;stroke:none"/>
        </g>
    </g>
</svg>
